<svg width="113" height="79" viewBox="0 0 113 79" fill="none" xmlns="http://www.w3.org/2000/svg">
<path d="M22.8051 30.9999C22.8051 40.9411 30.864 48.9999 40.8051 48.9999L67.8051 48.9999C70.5666 48.9999 72.8051 46.7614 72.8051 43.9999L72.8051 9.99994C72.8051 4.47709 68.328 -6.1518e-05 62.8051 -6.10352e-05L27.8051 -5.79754e-05C25.0437 -5.77339e-05 22.8051 2.23852 22.8051 4.99994L22.8051 30.9999Z" fill="#FFF1DA"/>
<path d="M71.389 44.9413C70.0307 45.2455 68.7077 45.8091 67.5021 46.5965C64.3613 48.5978 62.534 51.4546 63.421 52.9767C64.3079 54.4988 67.573 54.1095 70.7137 52.1082C71.9355 51.3486 73.0209 50.3778 73.9031 49.2559C74.3125 48.7138 74.3859 48.0383 74.0907 47.5334L72.9385 45.556C72.6454 45.0495 72.0373 44.8086 71.389 44.9413Z" fill="#D5D6DB"/>
<path d="M63.502 17.9482C62.517 18.169 61.5576 18.5778 60.6834 19.1489C58.4065 20.5996 57.0808 22.671 57.7234 23.7738C58.3659 24.8766 60.7344 24.5941 63.011 23.1435C63.8969 22.5924 64.6838 21.8881 65.3236 21.0745C65.6201 20.6816 65.6732 20.1922 65.4593 19.8261L64.625 18.3943C64.4127 18.0272 63.9721 17.8521 63.502 17.9482Z" fill="#D5D6DB"/>
<path d="M50.6878 19.0787C50.4686 19.0542 50.2348 19.1126 50.032 19.2421L44.6838 22.6504C44.2365 22.9346 44.0575 23.4819 44.2844 23.8731C44.3363 23.9627 44.4073 24.0393 44.4935 24.0983L57.6752 33.1832L75.5086 21.8185L50.6878 19.0787Z" fill="#029BC5"/>
<path d="M107.065 17.794L58.5328 48.3462L29.8201 59.7716L15.1769 62.6823L13.566 59.9451L94.4611 9.99847C96.8719 8.5036 99.5575 7.58604 102.246 7.33895C103.424 7.23706 104.587 7.27622 105.708 7.45501C106.702 7.60572 107.645 7.89643 108.508 8.31852C109.472 8.79676 111.307 8.85191 111.901 9.80473C111.903 9.8032 113.305 14.1776 107.065 17.794Z" fill="#E1E6E9"/>
<path d="M59.1761 44.3036L38.1808 77.7735C37.9186 78.2437 38.0743 78.7702 38.5282 78.9494C38.8067 79.0595 39.1476 79.016 39.4341 78.834L44.7781 75.4438C45.8059 74.7915 46.716 73.9629 47.4522 73.0093L88.1686 25.1404L59.1761 44.3036Z" fill="#029BC5"/>
<path d="M6.1965 43.1861C5.84627 43.0664 5.42949 43.1285 5.07766 43.3526L0.660168 46.166C0.0582524 46.549 -0.181598 47.2855 0.124263 47.8111C0.182539 47.911 0.258239 47.999 0.348975 48.0714L12.7257 57.9838L25.7387 49.8557L6.1965 43.1861Z" fill="#029BC5"/>
<path d="M16.8741 59.7707L10.2126 69.1002C10.115 69.2343 10.1379 69.4026 10.2639 69.4759C10.3547 69.5288 10.4787 69.5193 10.5795 69.4517L14.7078 66.8358C14.7398 66.8154 14.7689 66.79 14.7929 66.7609L24.5264 54.9261L16.8741 59.7707Z" fill="#029BC5"/>
<path d="M104.911 7.85725C103.757 7.67182 102.559 7.63222 101.346 7.73883C100.165 9.38991 99.4107 11.2446 99.1572 13.118C99.1387 13.4944 99.4421 13.7652 99.835 13.723C99.9571 13.7098 100.079 13.6669 100.188 13.5981L107.796 8.75384C106.906 8.31524 105.935 8.01339 104.911 7.85725Z" fill="#029BC5"/>
<path d="M88.332 16.7654L93.299 13.6284L97.9256 21.4974L92.9586 24.6344L88.332 16.7654Z" fill="#D5D6DB"/>
<path d="M85.2065 19.8776C84.608 20.2567 84.3687 20.9855 84.6726 21.5052L85.1649 22.3472C85.4888 22.8537 86.2281 22.9427 86.8163 22.546C87.3762 22.1682 87.6016 21.4816 87.3318 20.9745L86.8395 20.1325C86.5359 19.6133 85.8051 19.499 85.2065 19.8776Z" fill="#3A556A"/>
<path d="M80.7421 22.65C80.1436 23.0292 79.9043 23.758 80.2082 24.2777L80.7005 25.1197C81.0244 25.6261 81.7636 25.7152 82.3519 25.3185C82.9117 24.9407 83.1372 24.254 82.8674 23.747L82.3751 22.905C82.0712 22.3859 81.3404 22.2716 80.7421 22.65Z" fill="#3A556A"/>
<path d="M76.2763 25.4234C75.6784 25.803 75.44 26.5309 75.7436 27.0502L76.2359 27.8922C76.5598 28.3986 77.299 28.4877 77.8873 28.091C78.4471 27.7132 78.6726 27.0265 78.4028 26.5195L77.9105 25.6776C77.6066 25.1579 76.875 25.0441 76.2763 25.4234Z" fill="#3A556A"/>
<path d="M71.812 28.1957C71.2141 28.5754 70.9757 29.3033 71.2793 29.8226L71.7716 30.6646C72.0955 31.171 72.8348 31.2601 73.423 30.8634C73.9829 30.4856 74.2083 29.7989 73.9385 29.2919L73.4462 28.4499C73.1421 27.9304 72.4105 27.8166 71.812 28.1957Z" fill="#3A556A"/>
<path d="M67.3481 30.9684C66.7498 31.3482 66.5113 32.0765 66.8151 32.596L67.3077 33.4383C67.6114 33.9576 68.3426 34.0713 68.941 33.6923C69.5394 33.3133 69.7783 32.5851 69.4746 32.0659L68.982 31.2235C68.6791 30.7038 67.9481 30.5893 67.3493 30.9676L67.3481 30.9684Z" fill="#3A556A"/>
<path d="M62.8836 33.7409C62.2854 34.1207 62.0469 34.8489 62.3507 35.3684L62.8433 36.2108C63.147 36.73 63.8782 36.8437 64.4766 36.4648C65.075 36.0858 65.3138 35.3576 65.0102 34.8383L64.5176 33.996C64.2147 33.4762 63.4837 33.3618 62.8849 33.7401L62.8836 33.7409Z" fill="#3A556A"/>
<path d="M58.419 36.5134C57.8208 36.8932 57.5823 37.6214 57.8861 38.1409L58.3787 38.9832C58.6831 39.502 59.4147 39.6146 60.0124 39.2351C60.6091 38.8563 60.8475 38.1296 60.5453 37.611L60.0527 36.7687C59.7491 36.249 59.0179 36.1347 58.419 36.5134Z" fill="#3A556A"/>
<path d="M53.9544 39.2859C53.3562 39.6657 53.1177 40.3939 53.4215 40.9134L53.9141 41.7558C54.2185 42.2746 54.9501 42.3871 55.5478 42.0077C56.1445 41.6288 56.3829 40.9021 56.0807 40.3835L55.5881 39.5412C55.2845 39.0215 54.5533 38.9072 53.9544 39.2859Z" fill="#3A556A"/>
<path d="M49.4901 42.0583C48.8919 42.4381 48.6534 43.1664 48.9572 43.6858L49.4498 44.5281C49.7542 45.0469 50.4858 45.1595 51.0835 44.78C51.6802 44.4012 51.9186 43.6745 51.6164 43.1559L51.1238 42.3136C50.82 41.7941 50.0888 41.6798 49.4901 42.0583Z" fill="#3A556A"/>
<path d="M45.0243 44.8316C44.426 45.2105 44.1871 45.9387 44.4907 46.458L44.984 47.3014C45.2884 47.8202 46.02 47.9328 46.6177 47.5533C47.2144 47.1745 47.4528 46.4478 47.1506 45.9291L46.658 45.0868C46.3544 44.5672 45.6232 44.4528 45.0243 44.8316Z" fill="#3A556A"/>
<path d="M40.5611 47.6033C39.9628 47.9822 39.7239 48.7104 40.0275 49.2297L40.5208 50.0731C40.8252 50.5918 41.5568 50.7044 42.1546 50.3249C42.7513 49.9461 42.9897 49.2195 42.6874 48.7008L42.1948 47.8585C41.891 47.339 41.1598 47.2247 40.5611 47.6033Z" fill="#3A556A"/>
</svg>
